<svg width="1007" height="677" viewBox="0 0 1007 677" fill="none" xmlns="http://www.w3.org/2000/svg">
<g id="Website_builder 1" clip-path="url(#clip0_1_2)">
<path id="Vector" d="M580.305 32.9497C588.943 49.3204 570.64 53.9574 549.673 62.7318C528.707 71.5063 513.017 81.0955 504.379 64.7248C495.742 48.3542 488.733 15.8615 518.394 3.44854C549.076 -9.39207 571.667 16.5791 580.305 32.9497Z" fill="#2F2E41"/>
<path id="Vector_2" d="M537.528 65.1443C553.116 65.1443 565.753 53.8898 565.753 40.0067C565.753 26.1236 553.116 14.8691 537.528 14.8691C521.94 14.8691 509.303 26.1236 509.303 40.0067C509.303 53.8898 521.94 65.1443 537.528 65.1443Z" fill="#FFB8B8"/>
<path id="Vector_3" d="M677.361 151.487C676.384 150.351 675.407 149.235 674.419 148.15C673.143 146.738 671.86 145.37 670.569 144.046C655.94 129.011 640.38 119.544 623.246 118.531H623.223L622.97 118.51L588.827 148.15L577.221 158.221L577.474 158.774L583.736 172.662H693.473C688.528 165.354 683.15 158.286 677.361 151.487Z" fill="#2F2E41"/>
<path id="Vector_4" d="M506.835 50.127L516.939 45.8986L515.531 32.9175L522.287 43.6601L527.116 41.6391L526.296 34.0668L530.237 40.3333L566.119 25.3163C562.749 18.9289 556.668 13.9954 549.214 11.6012C541.759 9.207 533.542 9.54816 526.37 12.5496L521.17 14.726C513.998 17.7275 508.458 23.1435 505.77 29.7825C503.082 36.4214 503.465 43.7396 506.835 50.127Z" fill="#2F2E41"/>
<path id="Vector_5" d="M740.681 506.415H151.334C146.306 506.41 141.487 504.629 137.932 501.463C134.377 498.297 132.378 494.005 132.372 489.528V174.14C132.376 170.86 133.841 167.716 136.445 165.396C139.049 163.077 142.58 161.772 146.263 161.768H745.511C749.258 161.772 752.85 163.099 755.499 165.459C758.148 167.818 759.638 171.017 759.643 174.354V489.528C759.637 494.005 757.637 498.297 754.083 501.463C750.528 504.629 745.708 506.41 740.681 506.415Z" fill="#F2F2F2"/>
<path id="Vector_6" d="M169.721 489.528H722.294C727.171 489.528 731.847 487.802 735.295 484.731C738.744 481.66 740.681 477.495 740.681 473.152V205.465C740.681 201.122 738.744 196.956 735.295 193.885C731.847 190.814 727.171 189.089 722.294 189.089H169.721C164.844 189.089 160.167 190.814 156.719 193.885C153.271 196.956 151.334 201.122 151.334 205.465V473.152C151.334 477.495 153.271 481.66 156.719 484.731C160.167 487.802 164.844 489.528 169.721 489.528Z" fill="white"/>
<path id="Vector_7" d="M759.379 173.174H132.106V164.577C132.113 160.085 134.121 155.779 137.689 152.603C141.256 149.428 146.093 147.642 151.137 147.638H740.348C745.392 147.642 750.228 149.428 753.796 152.603C757.364 155.778 759.371 160.085 759.379 164.577V173.174Z" fill="#0083FF"/>
<path id="Vector_8" d="M166.691 164.816C169.41 164.816 171.614 162.853 171.614 160.432C171.614 158.011 169.41 156.048 166.691 156.048C163.973 156.048 161.769 158.011 161.769 160.432C161.769 162.853 163.973 164.816 166.691 164.816Z" fill="white"/>
<path id="Vector_9" d="M185.376 164.816C188.094 164.816 190.298 162.853 190.298 160.432C190.298 158.011 188.094 156.048 185.376 156.048C182.657 156.048 180.453 158.011 180.453 160.432C180.453 162.853 182.657 164.816 185.376 164.816Z" fill="white"/>
<path id="Vector_10" d="M204.06 164.816C206.778 164.816 208.982 162.853 208.982 160.432C208.982 158.011 206.778 156.048 204.06 156.048C201.341 156.048 199.137 158.011 199.137 160.432C199.137 162.853 201.341 164.816 204.06 164.816Z" fill="white"/>
<path id="Vector_11" d="M463.249 431.475H413.834C410.94 431.472 408.165 430.447 406.118 428.624C404.071 426.801 402.92 424.33 402.917 421.752V377.743C402.92 375.165 404.071 372.694 406.118 370.871C408.165 369.048 410.94 368.023 413.834 368.02H463.249C466.143 368.023 468.918 369.048 470.965 370.871C473.012 372.694 474.163 375.165 474.166 377.743V421.752C474.163 424.33 473.012 426.801 470.965 428.624C468.918 430.447 466.143 431.472 463.249 431.475ZM413.834 370.067C411.549 370.069 409.358 370.878 407.742 372.317C406.126 373.757 405.218 375.708 405.215 377.743V421.752C405.218 423.787 406.126 425.738 407.742 427.177C409.358 428.616 411.549 429.426 413.834 429.428H463.249C465.534 429.426 467.725 428.616 469.341 427.177C470.957 425.738 471.865 423.787 471.868 421.752V377.743C471.865 375.708 470.957 373.757 469.341 372.317C467.725 370.878 465.534 370.069 463.249 370.067H413.834Z" fill="#CCCCCC"/>
<path id="Vector_12" d="M453.481 419.193H423.602C422.688 419.193 421.812 418.869 421.165 418.293C420.519 417.718 420.156 416.937 420.155 416.123V383.372C420.156 382.558 420.519 381.777 421.165 381.202C421.812 380.626 422.688 380.302 423.602 380.301H445.252C446.037 380.302 446.799 380.541 447.412 380.979L455.64 386.868C456.043 387.154 456.368 387.519 456.591 387.933C456.815 388.347 456.93 388.801 456.929 389.261V416.123C456.928 416.937 456.564 417.718 455.918 418.293C455.271 418.869 454.395 419.193 453.481 419.193ZM423.602 382.348C423.297 382.349 423.005 382.457 422.79 382.649C422.575 382.84 422.453 383.101 422.453 383.372V416.123C422.453 416.394 422.575 416.654 422.79 416.846C423.005 417.038 423.297 417.146 423.602 417.146H453.481C453.786 417.146 454.078 417.038 454.293 416.846C454.509 416.654 454.63 416.394 454.63 416.123V389.261C454.631 389.108 454.592 388.956 454.518 388.818C454.444 388.68 454.335 388.559 454.201 388.463L445.971 382.574C445.767 382.428 445.514 382.349 445.252 382.348H423.602Z" fill="#CCCCCC"/>
<path id="Vector_13" d="M447.735 394.63H429.348C429.043 394.63 428.751 394.522 428.535 394.33C428.32 394.138 428.199 393.878 428.199 393.607C428.199 393.335 428.32 393.075 428.535 392.883C428.751 392.691 429.043 392.583 429.348 392.583H447.735C448.04 392.583 448.332 392.691 448.548 392.883C448.763 393.075 448.884 393.335 448.884 393.607C448.884 393.878 448.763 394.138 448.548 394.33C448.332 394.522 448.04 394.63 447.735 394.63Z" fill="#CCCCCC"/>
<path id="Vector_14" d="M447.735 400.771H429.348C429.043 400.771 428.751 400.663 428.535 400.471C428.32 400.279 428.199 400.019 428.199 399.747C428.199 399.476 428.32 399.216 428.535 399.024C428.751 398.832 429.043 398.724 429.348 398.724H447.735C448.04 398.724 448.332 398.832 448.548 399.024C448.763 399.216 448.884 399.476 448.884 399.747C448.884 400.019 448.763 400.279 448.548 400.471C448.332 400.663 448.04 400.771 447.735 400.771Z" fill="#CCCCCC"/>
<path id="Vector_15" d="M447.735 406.912H429.348C429.043 406.912 428.751 406.804 428.535 406.612C428.32 406.42 428.199 406.16 428.199 405.888C428.199 405.617 428.32 405.356 428.535 405.165C428.751 404.973 429.043 404.865 429.348 404.865H447.735C448.04 404.865 448.332 404.973 448.548 405.165C448.763 405.356 448.884 405.617 448.884 405.888C448.884 406.16 448.763 406.42 448.548 406.612C448.332 406.804 448.04 406.912 447.735 406.912Z" fill="#CCCCCC"/>
<path id="Vector_16" d="M580.466 431.475H531.051C528.157 431.472 525.382 430.447 523.335 428.624C521.288 426.801 520.137 424.33 520.134 421.752V377.743C520.137 375.165 521.288 372.694 523.335 370.871C525.382 369.048 528.157 368.023 531.051 368.02H580.466C583.361 368.023 586.135 369.048 588.182 370.871C590.229 372.694 591.38 375.165 591.383 377.743V421.752C591.38 424.33 590.229 426.801 588.182 428.624C586.135 430.447 583.361 431.472 580.466 431.475ZM531.051 370.067C528.766 370.069 526.575 370.878 524.959 372.317C523.344 373.757 522.435 375.708 522.432 377.743V421.752C522.435 423.787 523.344 425.738 524.959 427.177C526.575 428.616 528.766 429.426 531.051 429.428H580.466C582.751 429.426 584.942 428.616 586.558 427.177C588.174 425.738 589.082 423.787 589.085 421.752V377.743C589.082 375.708 588.174 373.757 586.558 372.317C584.942 370.878 582.751 370.069 580.466 370.067H531.051Z" fill="#CCCCCC"/>
<path id="Vector_17" d="M571.847 411.006H539.67C538.756 411.005 537.88 410.681 537.233 410.105C536.587 409.53 536.223 408.749 536.222 407.935V391.56C536.223 390.746 536.587 389.965 537.233 389.39C537.88 388.814 538.756 388.49 539.67 388.489H571.847C572.761 388.49 573.638 388.814 574.284 389.39C574.93 389.965 575.294 390.746 575.295 391.56V407.935C575.294 408.749 574.93 409.53 574.284 410.105C573.638 410.681 572.761 411.005 571.847 411.006ZM539.67 390.536C539.365 390.536 539.073 390.644 538.858 390.836C538.642 391.028 538.521 391.288 538.521 391.56V407.935C538.521 408.207 538.642 408.467 538.858 408.659C539.073 408.851 539.365 408.958 539.67 408.959H571.847C572.152 408.958 572.444 408.851 572.659 408.659C572.875 408.467 572.996 408.207 572.996 407.935V391.56C572.996 391.288 572.875 391.028 572.659 390.836C572.444 390.644 572.152 390.536 571.847 390.536H539.67Z" fill="#CCCCCC"/>
<path id="Vector_18" d="M555.759 402.448C555.113 402.448 554.48 402.288 553.932 401.984L536.762 392.428C536.504 392.283 536.321 392.054 536.253 391.79C536.185 391.525 536.237 391.248 536.399 391.018C536.56 390.788 536.818 390.625 537.114 390.563C537.411 390.502 537.723 390.548 537.981 390.692L555.15 400.248C555.333 400.349 555.544 400.403 555.759 400.403C555.974 400.403 556.185 400.349 556.368 400.248L573.536 390.692C573.795 390.548 574.106 390.502 574.403 390.563C574.7 390.625 574.957 390.788 575.118 391.018C575.28 391.248 575.332 391.525 575.264 391.79C575.196 392.054 575.013 392.283 574.755 392.428L557.587 401.984C557.038 402.288 556.405 402.448 555.759 402.448Z" fill="#CCCCCC"/>
<path id="Vector_19" d="M346.032 431.475H296.617C293.722 431.472 290.948 430.447 288.901 428.624C286.854 426.801 285.703 424.33 285.7 421.752V377.743C285.703 375.165 286.854 372.694 288.901 370.871C290.948 369.048 293.722 368.023 296.617 368.02H346.032C348.926 368.023 351.701 369.048 353.748 370.871C355.795 372.694 356.946 375.165 356.949 377.743V421.752C356.946 424.33 355.795 426.801 353.748 428.624C351.701 430.447 348.926 431.472 346.032 431.475ZM296.617 370.067C294.332 370.069 292.141 370.878 290.525 372.317C288.909 373.757 288.001 375.708 287.998 377.743V421.752C288.001 423.787 288.909 425.738 290.525 427.177C292.141 428.616 294.332 429.426 296.617 429.428H346.032C348.317 429.426 350.508 428.616 352.124 427.177C353.739 425.738 354.648 423.787 354.651 421.752V377.743C354.648 375.708 353.739 373.757 352.124 372.317C350.508 370.878 348.317 370.069 346.032 370.067H296.617Z" fill="#CCCCCC"/>
<path id="Vector_20" d="M337.413 411.006H305.236C304.322 411.005 303.445 410.681 302.799 410.105C302.153 409.53 301.789 408.749 301.788 407.935V391.56C301.789 390.746 302.153 389.965 302.799 389.39C303.445 388.814 304.322 388.49 305.236 388.489H337.413C338.327 388.49 339.203 388.814 339.85 389.39C340.496 389.965 340.86 390.746 340.861 391.56V407.935C340.86 408.749 340.496 409.53 339.85 410.105C339.203 410.681 338.327 411.005 337.413 411.006ZM305.236 390.536C304.931 390.536 304.639 390.644 304.424 390.836C304.208 391.028 304.087 391.288 304.087 391.56V407.935C304.087 408.207 304.208 408.467 304.424 408.659C304.639 408.851 304.931 408.958 305.236 408.959H337.413C337.718 408.958 338.01 408.851 338.225 408.659C338.441 408.467 338.562 408.207 338.562 407.935V391.56C338.562 391.288 338.441 391.028 338.225 390.836C338.01 390.644 337.718 390.536 337.413 390.536H305.236Z" fill="#CCCCCC"/>
<path id="Vector_21" d="M332.313 411.006H309.187C308.783 411.006 308.387 410.911 308.037 410.732C307.688 410.552 307.398 410.294 307.196 409.982C306.994 409.671 306.888 409.318 306.888 408.959C306.888 408.599 306.995 408.246 307.196 407.935L314.162 397.189C314.364 396.878 314.654 396.619 315.004 396.44C315.353 396.26 315.749 396.165 316.153 396.165C316.556 396.165 316.953 396.26 317.302 396.44C317.652 396.619 317.942 396.878 318.143 397.189L322.643 404.129L325.249 400.108C325.451 399.797 325.741 399.539 326.09 399.359C326.44 399.179 326.836 399.085 327.24 399.085C327.643 399.085 328.039 399.179 328.389 399.359C328.738 399.539 329.028 399.797 329.23 400.108L334.304 407.935C334.506 408.246 334.612 408.599 334.612 408.959C334.612 409.318 334.505 409.671 334.304 409.982C334.102 410.294 333.812 410.552 333.462 410.732C333.113 410.911 332.716 411.006 332.313 411.006ZM332.313 408.959L327.239 401.132L323.638 406.688C323.537 406.843 323.392 406.973 323.217 407.063C323.043 407.152 322.844 407.2 322.643 407.2C322.441 407.2 322.243 407.152 322.068 407.063C321.893 406.973 321.748 406.843 321.647 406.688L316.153 398.212L309.187 408.959H332.313Z" fill="#CCCCCC"/>
<path id="Vector_22" d="M333.965 396.677C335.235 396.677 336.264 395.76 336.264 394.63C336.264 393.499 335.235 392.583 333.965 392.583C332.696 392.583 331.667 393.499 331.667 394.63C331.667 395.76 332.696 396.677 333.965 396.677Z" fill="#CCCCCC"/>
<path id="Vector_23" d="M883.524 663.364L869.435 663.363L862.733 614.965L883.526 614.966L883.524 663.364Z" fill="#FFB8B8"/>
<path id="Vector_24" d="M887.117 675.527L841.689 675.526V675.014C841.689 672.946 842.146 670.898 843.035 668.988C843.923 667.077 845.226 665.341 846.868 663.879C848.509 662.417 850.459 661.257 852.604 660.465C854.749 659.674 857.049 659.267 859.371 659.267H859.372L887.117 659.268L887.117 675.527Z" fill="#2F2E41"/>
<path id="Vector_25" d="M940.983 663.364L926.894 663.363L920.192 614.965L940.985 614.966L940.983 663.364Z" fill="#FFB8B8"/>
<path id="Vector_26" d="M944.576 675.527L899.148 675.526V675.014C899.148 672.946 899.605 670.898 900.494 668.988C901.382 667.077 902.685 665.341 904.327 663.879C905.969 662.417 907.918 661.257 910.063 660.465C912.209 659.674 914.508 659.267 916.83 659.267H916.831L944.577 659.268L944.576 675.527Z" fill="#2F2E41"/>
<path id="Vector_27" d="M936.759 642.384L923.711 638.848C922.738 638.586 921.875 638.074 921.227 637.376C920.58 636.678 920.179 635.826 920.073 634.925L907.908 532.244C907.898 532.12 907.836 532.004 907.734 531.919C907.632 531.834 907.498 531.787 907.358 531.786C907.218 531.775 907.079 531.812 906.969 531.89C906.86 531.968 906.789 532.081 906.771 532.205L886.395 631.686C886.271 632.29 886.013 632.865 885.636 633.379C885.259 633.892 884.771 634.334 884.2 634.677C883.629 635.02 882.987 635.258 882.311 635.377C881.635 635.496 880.939 635.494 880.264 635.37L863.588 632.311C862.365 632.083 861.275 631.47 860.519 630.584C859.763 629.698 859.391 628.599 859.472 627.488L871.866 464.436L955.915 456.359L943.426 638.258C943.345 639.427 942.768 640.525 941.81 641.329C940.853 642.132 939.588 642.581 938.273 642.584C937.76 642.584 937.25 642.517 936.759 642.384Z" fill="#2F2E41"/>
<path id="Vector_28" d="M936.68 322.443C952.268 322.443 964.905 311.189 964.905 297.306C964.905 283.423 952.268 272.168 936.68 272.168C921.091 272.168 908.454 283.423 908.454 297.306C908.454 311.189 921.091 322.443 936.68 322.443Z" fill="#FFB8B8"/>
<path id="Vector_29" d="M871.737 465.394L889.961 363.199C890.93 357.765 893.187 352.578 896.582 347.981C899.978 343.385 904.433 339.486 909.652 336.542C914.871 333.599 920.734 331.679 926.851 330.911C932.968 330.142 939.199 330.543 945.128 332.086C955.495 334.756 964.373 340.773 970.025 348.961C975.678 357.148 977.701 366.919 975.698 376.363L956.631 467.628L871.737 465.394Z" fill="#0083FF"/>
<path id="Vector_30" d="M944.472 483.679C945.882 482.85 947.07 481.756 947.954 480.473C948.837 479.191 949.394 477.752 949.586 476.257C949.777 474.762 949.598 473.248 949.061 471.821C948.525 470.394 947.643 469.09 946.479 467.999L965.322 435.503L944.102 437.52L929.462 468.07C927.535 469.933 926.442 472.361 926.39 474.893C926.339 477.426 927.332 479.888 929.182 481.812C931.032 483.736 933.611 484.989 936.429 485.333C939.247 485.677 942.108 485.088 944.472 483.679Z" fill="#FFB8B8"/>
<path id="Vector_31" d="M948.506 462.267C947.464 462.136 946.491 461.725 945.718 461.09L938.509 455.157C937.73 454.513 937.192 453.671 936.968 452.746C936.743 451.821 936.843 450.857 937.254 449.984L951.662 419.568L949.618 359.47C949.912 357.538 950.63 355.677 951.732 353.992C952.835 352.308 954.298 350.833 956.041 349.653C957.783 348.473 959.769 347.61 961.886 347.113C964.003 346.617 966.209 346.497 968.378 346.761C970.547 347.024 972.636 347.666 974.527 348.649C976.417 349.632 978.071 350.937 979.395 352.49C980.719 354.043 981.686 355.813 982.241 357.699C982.796 359.584 982.929 361.549 982.631 363.481L986.126 401.259C987.188 412.725 983.538 424.145 975.854 433.393L953.385 460.446C952.953 460.966 952.403 461.399 951.77 461.717C951.138 462.035 950.437 462.231 949.714 462.292C949.312 462.326 948.906 462.318 948.506 462.267Z" fill="#0083FF"/>
<path id="Vector_32" d="M774.139 283.61C774.447 285.089 775.115 286.491 776.096 287.715C777.078 288.94 778.349 289.958 779.82 290.698C781.291 291.438 782.926 291.881 784.611 291.997C786.295 292.113 787.988 291.899 789.569 291.37L815.823 319.493L822.011 301.304L796.131 277.386C794.956 275.079 792.872 273.236 790.273 272.206C787.675 271.177 784.742 271.031 782.031 271.799C779.321 272.566 777.02 274.192 775.565 276.369C774.111 278.546 773.603 281.122 774.139 283.61Z" fill="#FFB8B8"/>
<path id="Vector_33" d="M794.705 295.267C795.247 294.463 796.051 293.826 797.01 293.439L805.955 289.84C806.925 289.452 808.005 289.339 809.049 289.516C810.093 289.693 811.051 290.151 811.793 290.828L837.624 314.503L900.561 336.259C902.445 337.253 904.09 338.568 905.402 340.128C906.715 341.689 907.669 343.464 908.21 345.354C908.752 347.243 908.87 349.209 908.558 351.139C908.245 353.069 907.509 354.925 906.391 356.601C905.272 358.277 903.794 359.741 902.04 360.908C900.287 362.075 898.292 362.923 896.17 363.403C894.048 363.883 891.84 363.986 889.674 363.706C887.507 363.425 885.424 362.767 883.543 361.77L843.118 349.906C830.849 346.307 820.464 338.861 813.898 328.954L794.686 299.979C794.317 299.421 794.084 298.801 794.002 298.158C793.919 297.515 793.99 296.864 794.209 296.247C794.33 295.904 794.497 295.575 794.705 295.267Z" fill="#0083FF"/>
<path id="Vector_34" opacity="0.1" d="M959.573 384.47L958.424 417.221L937.254 449.984L954.931 413.473L959.573 384.47Z" fill="black"/>
<path id="Vector_35" d="M933.446 302.03C931.673 302.235 929.877 301.86 928.391 300.975C926.905 300.09 925.83 298.755 925.366 297.217C924.919 295.448 923.939 293.82 922.532 292.508C921.125 291.197 919.343 290.251 917.379 289.773C912.201 288.719 905.873 290.89 902.079 287.396C901.267 286.598 900.679 285.64 900.364 284.601C900.049 283.561 900.017 282.47 900.269 281.417C900.967 278.022 903.694 275.457 906.662 273.405C912.907 269.109 920.464 266.593 928.342 266.189C932.421 266.084 936.502 266.265 940.548 266.73C944.784 266.968 948.975 267.65 953.032 268.762C957.655 270.315 961.763 272.882 964.977 276.223C968.191 279.565 970.407 283.574 971.421 287.881C972.349 292.2 972.206 296.648 971.004 300.914C969.802 305.179 967.569 309.16 964.46 312.577C960.74 316.704 955.942 319.957 950.486 322.053C949.186 322.6 947.697 322.667 946.341 322.241C942.943 321.037 943.498 317.288 945.048 314.787C946.706 312.111 949.258 309.52 947.924 306.263C947.256 304.753 945.972 303.523 944.33 302.818C940.952 301.283 937.173 301.646 933.541 302.02L933.446 302.03Z" fill="#2F2E41"/>
<path id="Vector_36" d="M764.707 316.225H415.354C410.327 316.22 405.508 314.44 401.953 311.274C398.398 308.108 396.398 303.815 396.393 299.338V232.812C396.398 228.335 398.398 224.043 401.953 220.877C405.508 217.711 410.327 215.93 415.354 215.925H764.707C769.734 215.93 774.554 217.711 778.109 220.877C781.663 224.043 783.663 228.335 783.669 232.812V299.338C783.663 303.815 781.663 308.108 778.109 311.274C774.554 314.439 769.734 316.22 764.707 316.225Z" fill="white"/>
<path id="Vector_37" d="M764.707 316.737H415.354C410.175 316.732 405.209 314.897 401.546 311.635C397.884 308.374 395.824 303.951 395.818 299.338V232.812C395.824 228.199 397.884 223.777 401.546 220.515C405.209 217.253 410.175 215.419 415.354 215.413H764.707C769.887 215.419 774.852 217.253 778.515 220.515C782.177 223.777 784.237 228.199 784.243 232.812V299.338C784.237 303.951 782.177 308.374 778.515 311.635C774.852 314.897 769.887 316.732 764.707 316.737ZM415.354 217.46C410.784 217.465 406.403 219.084 403.171 221.962C399.939 224.84 398.122 228.742 398.116 232.812V299.338C398.122 303.408 399.939 307.311 403.171 310.189C406.403 313.067 410.784 314.686 415.354 314.69H764.707C769.277 314.686 773.659 313.067 776.89 310.189C780.122 307.311 781.94 303.408 781.945 299.338V232.812C781.94 228.742 780.122 224.84 776.89 221.962C773.659 219.084 769.277 217.465 764.707 217.46H415.354Z" fill="#3F3D56"/>
<path id="Vector_38" d="M722.187 299.85H457.874C452.847 299.845 448.027 298.064 444.472 294.898C440.918 291.732 438.918 287.44 438.913 282.963V248.164C438.918 243.687 440.918 239.395 444.472 236.229C448.027 233.063 452.847 231.282 457.874 231.277H722.187C727.214 231.282 732.034 233.063 735.589 236.229C739.143 239.395 741.143 243.687 741.149 248.164V282.963C741.143 287.44 739.143 291.732 735.589 294.898C732.034 298.064 727.214 299.845 722.187 299.85Z" fill="#F2F2F2"/>
<path id="Vector_39" d="M514.753 281.094C527.277 281.094 537.429 272.052 537.429 260.899C537.429 249.745 527.277 240.703 514.753 240.703C502.229 240.703 492.077 249.745 492.077 260.899C492.077 272.052 502.229 281.094 514.753 281.094Z" fill="#FF6584"/>
<path id="Vector_40" d="M705.762 297.812L673.754 273.904L642.299 250.409C641.469 249.789 640.419 249.45 639.336 249.452C638.253 249.453 637.205 249.796 636.377 250.419L605.024 274.022L597.366 279.787L585.818 271.162L550.725 244.95C549.895 244.33 548.846 243.991 547.763 243.993C546.679 243.995 545.632 244.337 544.804 244.96L509.825 271.293L474.296 298.039C474.116 298.175 473.987 298.356 473.927 298.559C473.866 298.762 473.878 298.977 473.959 299.174C474.04 299.371 474.187 299.541 474.381 299.661C474.574 299.781 474.804 299.845 475.04 299.845L547.883 299.72L570.941 299.68L570.715 299.85L639.445 299.732L705.026 299.62C705.261 299.619 705.491 299.554 705.684 299.434C705.877 299.313 706.024 299.142 706.104 298.945C706.184 298.748 706.195 298.533 706.133 298.33C706.072 298.128 705.942 297.947 705.762 297.812Z" fill="#3F3D56"/>
<path id="Vector_41" d="M1005.85 677H785.207C784.902 677 784.61 676.892 784.394 676.7C784.179 676.508 784.058 676.248 784.058 675.977C784.058 675.705 784.179 675.445 784.394 675.253C784.61 675.061 784.902 674.953 785.207 674.953H1005.85C1006.16 674.953 1006.45 675.061 1006.66 675.253C1006.88 675.445 1007 675.705 1007 675.977C1007 676.248 1006.88 676.508 1006.66 676.7C1006.45 676.892 1006.16 677 1005.85 677Z" fill="#CCCCCC"/>
<path id="Vector_42" d="M694.173 135.009C693.256 133.68 692.043 132.533 690.611 131.635C689.178 130.738 687.556 130.11 685.842 129.789C685.214 129.671 684.576 129.6 683.935 129.574L596.378 59.8551C594.658 58.2807 592.364 57.3045 589.908 57.1019C589.423 57.0524 588.935 57.0387 588.448 57.061C586.428 57.1427 584.479 57.747 582.838 58.7998C581.197 59.8526 579.936 61.3083 579.21 62.9891C578.483 64.6698 578.322 66.5027 578.747 68.2636C579.171 70.0245 580.162 71.6372 581.599 72.9043L615.121 98.9313L670.167 141.661C670.212 142.466 670.347 143.265 670.569 144.046C671.228 146.309 672.644 148.34 674.628 149.87C676.613 151.4 679.073 152.356 681.682 152.612C684.061 152.86 686.471 152.505 688.635 151.589C690.35 150.875 691.871 149.837 693.093 148.549C693.219 148.416 693.335 148.293 693.45 148.15C695.056 146.285 695.987 144.028 696.116 141.68C696.245 139.332 695.568 137.005 694.173 135.009Z" fill="#FFB8B8"/>
<path id="Vector_43" d="M544.412 202.2L543.596 172.662L542.906 148.15L542.435 130.997L541.504 97.5599C541.32 95.7697 540.554 94.0659 539.301 92.6566C538.048 91.2473 536.361 90.1934 534.447 89.6236C532.532 89.0538 530.473 88.9928 528.52 89.4479C526.567 89.9031 524.806 90.8547 523.45 92.1866C523.131 92.491 522.842 92.8197 522.588 93.1692C521.173 94.9738 520.537 97.1723 520.795 99.3612L522.841 148.15L523.864 172.662L525.174 203.93C524.796 204.389 524.454 204.871 524.151 205.373C523.334 206.753 522.84 208.266 522.7 209.822C522.56 211.377 522.776 212.942 523.336 214.42C523.919 215.971 524.865 217.394 526.111 218.595C527.357 219.796 528.875 220.749 530.564 221.39C532.254 222.031 534.077 222.346 535.913 222.314C537.749 222.283 539.556 221.905 541.216 221.206C543.145 220.394 544.819 219.171 546.091 217.646C547.363 216.121 548.193 214.341 548.509 212.462C548.825 210.583 548.616 208.664 547.901 206.875C547.187 205.085 545.988 203.479 544.412 202.2Z" fill="#FFB8B8"/>
<path id="Vector_44" d="M623.246 118.531L615.121 98.9313L601.974 67.1832C601.026 64.8732 599.505 62.7831 597.526 61.068C595.546 59.3529 593.158 58.0569 590.539 57.276C590.333 57.2145 590.115 57.1531 589.908 57.1019C587.371 56.4162 584.698 56.2276 582.071 56.5491C579.445 56.8706 576.928 57.6947 574.693 58.9646L530.414 83.9783C526.359 86.2639 523.46 89.8638 522.33 94.0176C521.2 98.1714 521.927 102.554 524.358 106.239C529.895 114.766 535.929 123.03 542.435 130.997C547.595 137.25 557.202 137.915 558.868 148.15H591.516L624.567 121.724L623.246 118.531Z" fill="#CCCCCC"/>
<path id="Vector_45" d="M116.257 358.066C130.964 358.066 142.886 347.449 142.886 334.351C142.886 321.253 130.964 310.635 116.257 310.635C101.551 310.635 89.6285 321.253 89.6285 334.351C89.6285 347.449 101.551 358.066 116.257 358.066Z" fill="#A0616A"/>
<path id="Vector_46" d="M181.63 318.026C181.893 318.212 182.147 318.409 182.394 318.618C183.617 319.644 184.583 320.889 185.228 322.271C185.874 323.653 186.184 325.141 186.139 326.637C186.093 328.133 185.694 329.604 184.966 330.953C184.238 332.302 183.198 333.499 181.914 334.465C181.615 334.688 181.303 334.898 180.979 335.093L182.781 389.28C182.832 391.054 182.24 392.796 181.092 394.246C179.944 395.696 178.302 396.779 176.409 397.332L176.299 397.353L126.897 402.038C125.554 402.166 124.196 402.055 122.901 401.712C121.607 401.369 120.401 400.801 119.354 400.041C118.307 399.281 117.44 398.344 116.802 397.283C116.164 396.223 115.768 395.061 115.638 393.863C115.507 392.666 115.644 391.458 116.04 390.308C116.437 389.158 117.085 388.089 117.948 387.164C118.811 386.238 119.871 385.474 121.068 384.916C122.264 384.357 123.573 384.015 124.918 383.91L160.134 381.148L166.224 334.22C165.826 333.906 165.453 333.568 165.108 333.207C163.198 331.194 162.197 328.621 162.298 325.988C162.399 323.355 163.595 320.848 165.654 318.956C167.713 317.064 170.489 315.921 173.441 315.75C176.393 315.578 179.312 316.389 181.63 318.026Z" fill="#A0616A"/>
<path id="Vector_47" d="M160.114 664.413H173.407L179.729 618.752H160.112L160.114 664.413Z" fill="#A0616A"/>
<path id="Vector_48" d="M156.724 660.548L182.9 660.547C185.091 660.547 187.261 660.931 189.285 661.678C191.309 662.424 193.148 663.518 194.697 664.898C196.246 666.278 197.475 667.915 198.313 669.718C199.152 671.52 199.583 673.452 199.583 675.403V675.886L156.725 675.888L156.724 660.548Z" fill="#2F2E41"/>
<path id="Vector_49" d="M28.0011 648.045L39.4217 654.101L71.0853 617.75L54.229 608.812L28.0011 648.045Z" fill="#A0616A"/>
<path id="Vector_50" d="M27.3081 643.18L49.7995 655.106C51.6818 656.104 53.3258 657.423 54.6359 658.987C55.946 660.551 56.8974 662.329 57.4359 664.22C57.9744 666.111 58.0893 668.078 57.7741 670.009C57.4589 671.94 56.7198 673.796 55.599 675.473L55.3217 675.888L18.4966 656.36L27.3081 643.18Z" fill="#2F2E41"/>
<path id="Vector_51" d="M176.543 648.285H161.659C160.453 648.287 159.29 647.891 158.394 647.173C157.498 646.455 156.933 645.467 156.807 644.399L141.802 518.781C141.764 518.465 141.611 518.168 141.365 517.938C141.119 517.707 140.795 517.555 140.443 517.504C140.09 517.454 139.729 517.508 139.414 517.659C139.1 517.809 138.85 518.048 138.703 518.338L111.633 571.721L63.7079 641.32C63.0877 642.212 62.1273 642.875 61.0027 643.188C59.878 643.502 58.6644 643.443 57.584 643.025L38.4383 635.522C37.8052 635.274 37.2387 634.909 36.7761 634.451C36.3136 633.993 35.9657 633.453 35.7554 632.866C35.5452 632.279 35.4774 631.659 35.5566 631.047C35.6358 630.435 35.8602 629.845 36.2149 629.316L80.2713 563.617L93.7831 508.262C89.5334 484.257 107.751 448.567 107.936 448.209L108.026 448.034L158.209 430.566L158.46 430.84C178.251 488.681 190.31 550.927 181.406 644.304C181.296 645.387 180.737 646.395 179.838 647.131C178.939 647.868 177.764 648.279 176.543 648.285Z" fill="#2F2E41"/>
<path id="Vector_52" d="M106.005 453.884L105.771 453.446C105.659 453.237 94.5009 432.277 85.8993 409.875C84.2462 405.543 83.6212 400.953 84.0641 396.394C84.5069 391.836 86.0078 387.409 88.4718 383.394C90.9678 379.338 94.3826 375.788 98.4997 372.968C102.617 370.149 107.347 368.121 112.389 367.015C121.144 365.146 130.361 366.14 138.361 369.816C146.361 373.493 152.612 379.606 155.976 387.044C162.798 402.239 160.624 418.459 158.578 431.214L158.537 431.469L158.276 431.581L106.005 453.884Z" fill="#3F3D56"/>
<path id="Vector_53" d="M148.543 320.954H106.26V304.539C115.541 301.256 124.623 298.463 130.112 304.539C135.001 304.54 139.689 306.269 143.145 309.347C146.602 312.426 148.543 316.601 148.543 320.954Z" fill="#2F2E41"/>
<path id="Vector_54" d="M103.92 301.643C78.6419 301.643 71.5667 329.861 71.5667 345.781C71.5667 354.659 76.075 357.834 83.1592 358.908L85.661 347.025L91.5208 359.42C93.5107 359.429 95.6013 359.394 97.7686 359.359L99.7554 355.715L104.186 359.293C121.93 359.317 136.272 361.62 136.272 345.781C136.272 329.861 130.067 301.643 103.92 301.643Z" fill="#2F2E41"/>
<path id="Vector_55" d="M221.793 677H1.14919C0.844404 677 0.552103 676.892 0.336588 676.7C0.121074 676.508 0 676.248 0 675.977C0 675.705 0.121074 675.445 0.336588 675.253C0.552103 675.061 0.844404 674.953 1.14919 674.953H221.793C222.098 674.953 222.39 675.061 222.606 675.253C222.821 675.445 222.942 675.705 222.942 675.977C222.942 676.248 222.821 676.508 222.606 676.7C222.39 676.892 222.098 677 221.793 677Z" fill="#CCCCCC"/>
<path id="Vector_56" d="M225.942 340.277H176.527C173.632 340.274 170.858 339.249 168.811 337.426C166.764 335.603 165.613 333.132 165.61 330.554V286.545C165.613 283.967 166.764 281.496 168.811 279.673C170.858 277.85 173.632 276.825 176.527 276.822H225.942C228.836 276.825 231.611 277.85 233.658 279.673C235.705 281.496 236.856 283.967 236.859 286.545V330.554C236.856 333.132 235.705 335.603 233.658 337.426C231.611 339.249 228.836 340.274 225.942 340.277Z" fill="white"/>
<path id="Vector_57" d="M225.942 340.277H176.527C173.632 340.274 170.858 339.249 168.811 337.426C166.764 335.603 165.613 333.132 165.61 330.554V286.545C165.613 283.967 166.764 281.496 168.811 279.673C170.858 277.85 173.632 276.825 176.527 276.822H225.942C228.836 276.825 231.611 277.85 233.658 279.673C235.705 281.496 236.856 283.967 236.859 286.545V330.554C236.856 333.132 235.705 335.603 233.658 337.426C231.611 339.249 228.836 340.274 225.942 340.277ZM176.527 278.869C174.242 278.871 172.051 279.68 170.435 281.12C168.819 282.559 167.911 284.51 167.908 286.545V330.554C167.911 332.589 168.819 334.54 170.435 335.979C172.051 337.419 174.242 338.228 176.527 338.23H225.942C228.227 338.228 230.418 337.419 232.034 335.979C233.649 334.54 234.558 332.589 234.561 330.554V286.545C234.558 284.51 233.649 282.559 232.034 281.12C230.418 279.68 228.227 278.871 225.942 278.869H176.527Z" fill="#3F3D56"/>
<path id="Vector_58" d="M217.323 322.366H185.146C184.232 322.365 183.355 322.042 182.709 321.466C182.063 320.89 181.699 320.11 181.698 319.296V297.803C181.699 296.989 182.063 296.208 182.709 295.633C183.355 295.057 184.232 294.733 185.146 294.733H194.204C194.793 294.731 195.373 294.864 195.887 295.12C196.402 295.376 196.833 295.746 197.14 296.193L199.667 299.85H217.323C218.237 299.851 219.113 300.175 219.76 300.75C220.406 301.326 220.77 302.106 220.771 302.92V319.296C220.77 320.11 220.406 320.89 219.76 321.466C219.113 322.042 218.237 322.365 217.323 322.366Z" fill="#0083FF"/>
<path id="Vector_59" d="M216.276 333.225C216.437 333.487 216.586 333.756 216.722 334.033C217.402 335.402 217.75 336.883 217.743 338.38C217.735 339.877 217.373 341.355 216.68 342.718C215.986 344.082 214.977 345.299 213.718 346.291C212.459 347.283 210.979 348.026 209.376 348.473C209.002 348.576 208.623 348.661 208.24 348.728L186.291 399.293C185.566 400.946 184.261 402.346 182.571 403.286C180.881 404.226 178.896 404.656 176.91 404.512L176.8 404.493L129.227 391.738C127.934 391.392 126.73 390.82 125.686 390.057C124.642 389.293 123.779 388.353 123.145 387.291C122.511 386.228 122.12 385.065 121.994 383.867C121.868 382.669 122.01 381.461 122.411 380.312C122.812 379.164 123.465 378.097 124.331 377.174C125.198 376.252 126.261 375.491 127.46 374.936C128.659 374.382 129.969 374.044 131.315 373.943C132.661 373.841 134.016 373.979 135.302 374.346L168.962 383.971L195.021 342.825C194.791 342.398 194.595 341.957 194.434 341.506C193.551 338.991 193.749 336.274 194.99 333.881C196.23 331.489 198.425 329.593 201.147 328.561C203.869 327.529 206.925 327.435 209.721 328.296C212.516 329.158 214.853 330.915 216.276 333.225Z" fill="#A0616A"/>
</g>
<defs>
<clipPath id="clip0_1_2">
<rect width="1007" height="677" fill="white"/>
</clipPath>
</defs>
</svg>
